# xmcd
#
# Track frame offsets:
# 150
# 12863
# 23243
# 33025
# 42872
# 50278
# 63910
# 71382
# 85356
# 93704
# 97592
# 109400
# 112733
# 119543
# 130504
# 137193
# 172267
# 191292
# 199090
# 212188
# 221823
#
# Disc length: 3360 seconds
#
#
# Revision: 0
# Processed by: cddbd v1.5.2PL0 Copyright (c) Steve Scherf et al.
# Submitted via: FreeRIP 2.96 
#
DISCID=230d1e15
DTITLE=Helge Schneider - Aprikose, Banane, Erdbeer CD3v3
DYEAR=2004
DGENRE=Speech
TTITLE0=35 Karge Gegend. Mehr Stein als Grün. Die Alpen südlich von Tirol...
TTITLE1=36 Sie werden großen Ärger bekommen!...
TTITLE2=37 Kommissar Schneider schlug die Augen auf...
TTITLE3=38 Der mit der Kralle ging nichtsahnend über eine Straße
TTITLE4=39 Der Kommissar stand am Pissoir. Er konnte nicht...
TTITLE5=40 "Das Aupair-Mädchen und das Biest" hieß der Film
TTITLE6=41 Der Kommissar mußte sich etwas einfallen lassen...
TTITLE7=42 Die Erde war von einer bläulich schimmernden Schicht umgeben
TTITLE8=43 Ich hätte gerne eine schöne Portion Eis, und zwar Aprikose...
TTITLE9=44 Die Produktionsfirma war etwas verwundert über den Wunsch...
TTITLE10=45 Als Kommissar Schneider mit seinem Blindenhund über die Straße...
TTITLE11=46 Frau Kommissar Schneider saß im Polizeipräsidium und weinte...
TTITLE12=47 Es war soweit. Die Zeitrechnung wurde eingeführt...
TTITLE13=48 Zurück zur Gegenwart. Ich habe bewusst in meiner Erzählung...
TTITLE14=49 Die Satanskralle von Singapur war in Singapur eingetroffen
TTITLE15=50 Kommissar Schneider saß auf dem Hocker in der McDonalds Bude...
TTITLE16=51 Die Frau Kommissar Schneider sehnte sich nach einer zärtlichen Hand...
TTITLE17=52 Peitscht ihn aus! Er hat sich einen Apfel genommen...
TTITLE18=53 Kommissar Schneider stapfte durch die Gegend...
TTITLE19=54 Frau Kommissar Schneider saß beim Frauenarzt...
TTITLE20=55 Das Telefon des Kommissar Schneider trötete durch den kleinen Aufzug...
EXTD=gelesen von Helge Schneider
EXTT0=
EXTT1=
EXTT2=
EXTT3=
EXTT4=
EXTT5=
EXTT6=
EXTT7=
EXTT8=
EXTT9=
EXTT10=
EXTT11=
EXTT12=
EXTT13=
EXTT14=
EXTT15=
EXTT16=
EXTT17=
EXTT18=
EXTT19=
EXTT20=
PLAYORDER=
